<?xml version="1.0" encoding="UTF-8" standalone="no"?>
<!-- Created with Inkscape (http://www.inkscape.org/) -->

<svg
   width="220"
   height="140"
   viewBox="0 0 58.208332 37.041666"
   version="1.1"
   id="svg321"
   xml:space="preserve"
   sodipodi:docname="logo.svg"
   inkscape:version="1.2.2 (732a01da63, 2022-12-09, custom)"
   xmlns:inkscape="http://www.inkscape.org/namespaces/inkscape"
   xmlns:sodipodi="http://sodipodi.sourceforge.net/DTD/sodipodi-0.dtd"
   xmlns="http://www.w3.org/2000/svg"
   xmlns:svg="http://www.w3.org/2000/svg"><sodipodi:namedview
     id="namedview202"
     pagecolor="#ffffff"
     bordercolor="#666666"
     borderopacity="1.0"
     inkscape:showpageshadow="2"
     inkscape:pageopacity="0.0"
     inkscape:pagecheckerboard="0"
     inkscape:deskcolor="#d1d1d1"
     showgrid="false"
     inkscape:zoom="3.6318182"
     inkscape:cx="106.83354"
     inkscape:cy="75.031289"
     inkscape:window-width="1504"
     inkscape:window-height="1282"
     inkscape:window-x="26"
     inkscape:window-y="23"
     inkscape:window-maximized="0"
     inkscape:current-layer="svg321" /><defs
     id="defs318" /><path
     style="fill:#000000;stroke-width:0.264583"
     d="m 52.519687,33.777169 -0.79385,-0.358587 -0.341744,-0.411774 -0.341741,-0.411774 -0.233543,-0.814316 -0.233542,-0.814316 0.244255,-0.884621 0.244256,-0.884618 0.683175,-0.641813 0.683178,-0.64181 h 1.282197 1.2822 l 0.747006,0.554437 0.747006,0.554437 0.323901,0.966917 0.3239,0.966917 -0.3239,0.966917 -0.323901,0.966917 -0.667662,0.495197 -0.667663,0.495199 -0.919837,0.12764 -0.919838,0.127641 z m 2.83849,-1.597255 0.457139,-0.562208 0.0059,-0.739629 0.0059,-0.739632 -0.649433,-0.649431 -0.64943,-0.649433 H 53.842741 53.15723 l -0.649431,0.649433 -0.649433,0.649431 v 0.69088 0.690877 l 0.281879,0.526698 0.281879,0.526695 0.578017,0.22637 0.578017,0.226367 0.661458,-0.142105 0.661458,-0.142105 z M 8.8018023,33.595466 8.2108964,33.35781 8.3694797,32.944549 8.5280628,32.531288 9.3742283,32.690028 10.220394,32.84877 10.54635,32.456017 10.872307,32.063264 9.6694866,30.87746 8.4666665,29.691656 v -0.281297 -0.281294 l 0.2977803,-0.653558 0.2977803,-0.653558 0.6098998,-0.153075 0.6099001,-0.153075 0.674766,0.256546 0.674766,0.256545 -0.160785,0.418999 -0.160785,0.419 -0.735015,-0.161436 -0.735014,-0.161435 -0.1710465,0.276759 -0.1710462,0.276757 1.2041917,1.170342 1.204191,1.170339 v 0.564793 0.564793 l -0.649432,0.64943 -0.649432,0.649433 -0.607339,-0.01677 -0.6073389,-0.01677 z m 11.8425357,0.01085 -0.290916,-0.179795 0.07589,-2.756487 0.07589,-2.756492 h 1.583876 1.583877 l 0.08917,0.46302 0.08917,0.463021 h -1.21002 -1.210025 v 0.646245 0.646245 l 1.122196,0.08136 1.122197,0.08136 0.08783,0.463021 0.08783,0.463021 h -1.227599 -1.2276 l 0.08372,0.727604 0.08372,0.727604 1.124479,0.08136 1.124479,0.08136 v 0.520681 0.520685 l -1.438622,-0.04701 -1.438623,-0.04701 -0.290916,-0.179798 z m 6.525062,0.08948 -0.181901,-0.181901 V 30.613911 27.71393 l 1.367333,0.131384 1.367335,0.131384 0.352456,0.482016 0.35246,0.482015 v 0.8432 0.843201 l -0.586251,0.389255 -0.586253,0.389258 0.718545,0.85394 0.718542,0.85394 v 0.376576 0.376573 h -0.384408 -0.384405 l -0.872366,-1.089101 -0.872363,-1.089099 -0.132291,1.002273 -0.132292,1.002271 -0.28112,0.09234 -0.28112,0.09234 z m 2.147086,-4.163099 -0.08003,-0.560824 -0.595313,-0.08455 -0.595312,-0.08455 v 0.635762 0.635764 l 0.147611,0.147611 0.147613,0.147614 0.527728,-0.138004 0.52773,-0.138004 z m 3.337769,3.975729 -0.137467,-0.358238 0.985626,-2.552178 0.985626,-2.552179 h 0.594738 0.594741 l 1.058765,2.703756 1.058764,2.703758 -0.127722,0.206658 -0.127722,0.206661 h -0.371952 -0.371951 l -0.283202,-0.529166 -0.283202,-0.529167 h -1.172006 -1.172006 l -0.283202,0.529167 -0.283202,0.529166 h -0.263578 -0.263578 z m 3.064494,-2.005787 V 31.25528 l -0.283189,-0.744829 -0.283188,-0.744828 -0.213974,0.396875 -0.213971,0.396875 -0.182126,0.595312 -0.182129,0.595313 h 0.679289 0.679288 z m 3.889703,2.196782 -0.185536,-0.185534 v -2.734029 -2.734027 h 0.629025 0.629024 l 1.215667,1.760689 1.215671,1.76069 0.132926,-0.371628 0.132927,-0.371626 -0.05939,-1.38929 -0.05939,-1.38929 0.451033,2.28e-4 0.451029,2.27e-4 0.159229,0.859896 0.159227,0.859896 -0.08109,1.98157 -0.08109,1.981568 -0.435422,0.08304 -0.435422,0.08304 -1.497229,-2.064604 -1.497232,-2.064607 0.05899,1.984375 0.05898,1.984375 -0.388191,0.07529 -0.388194,0.07529 z m 7.48738,-2.238777 v -2.40602 l -0.529166,-0.13838 -0.529167,-0.138379 V 28.427464 28.07706 l 0.283369,-0.17513 0.283368,-0.175131 1.17184,0.175729 1.17184,0.175728 v 0.380661 0.380664 h -0.396875 -0.396875 v 2.513542 2.513541 H 47.624999 47.095832 Z M 2.1378038,31.022394 2.1853288,28.442706 2.311597,28.111977 2.4378653,27.781248 h 1.5591925 1.5591925 v 0.529167 0.529166 h -1.190625 -1.190625 v 0.661459 0.661458 h 1.2100253 1.2100253 l -0.088108,0.463021 -0.088108,0.46302 -1.0557714,0.132292 -1.0557716,0.132292 v 0.529166 0.529167 l 1.1244791,0.08136 1.1244792,0.08136 v 0.513953 0.513953 H 3.8232645 2.0902792 Z m 3.9476127,2.447395 v -0.132291 h 0.1322917 0.1322917 v 0.132291 0.132292 H 6.2177082 6.0854165 Z m 8.6301935,-0.315682 -0.146266,-0.478068 0.103417,-0.529166 0.103418,-0.529167 0.02024,-1.918229 0.02024,-1.918229 h 1.131754 1.131754 l 0.588038,0.411877 0.588038,0.411879 v 0.878642 0.878641 l -0.373267,0.309785 -0.373266,0.309782 -0.883504,0.142984 -0.883505,0.142983 v 1.095198 1.095197 l -0.440415,0.08698 -0.440416,0.08698 z M 17.065625,29.50104 V 28.971873 L 16.470312,28.887325 15.875,28.802778 v 0.261345 0.261347 l -0.168691,0.4396 -0.168691,0.4396 0.764003,-0.08723 0.764004,-0.08723 z M 3.0013766,26.127602 2.8791868,25.929165 4.9453225,25.925552 7.0114582,25.921939 7.6729165,25.754195 8.3343748,25.58645 8.1147654,25.823953 7.8951559,26.061456 5.5093612,26.193748 3.1235663,26.32604 Z M 16.139583,26.00899 V 25.664581 H 15.875 15.610416 v 0.280199 0.280198 l -0.330729,-0.209646 -0.330729,-0.209645 -3.175,0.08601 -3.1749999,0.08601 0.1322917,-0.1244 0.1322917,-0.124401 3.9687495,-0.17003 3.96875,-0.170029 3.175,-0.0891 3.175,-0.0891 -1.256771,0.10851 -1.25677,0.10851 v 0.201637 0.201637 l 3.108854,-0.06329 3.108854,-0.06329 -2.910417,0.220831 -2.910416,0.220831 -2.447396,0.103696 -2.447396,0.103696 z m 17.122679,-0.243256 -0.16343,-0.16343 -2.592644,-0.01944 -2.592647,-0.01944 2.182812,-0.09201 2.182813,-0.09201 v -0.265925 -0.265925 l -3.770312,0.160039 -3.770313,0.160039 -0.595312,0.121228 -0.595313,0.12123 v -0.269624 -0.269624 h 1.443182 1.443182 l -0.610206,-0.610206 -0.610206,-0.610206 -5.926205,0.07188 -5.926205,0.07188 -1.011659,0.147689 -1.011659,0.147689 0.149336,-0.24163 0.149336,-0.241631 5.465803,-0.195185 5.465803,-0.195185 1.349645,-0.184488 1.349645,-0.184489 -1.190625,-0.188506 -1.190625,-0.188507 -5.024097,-0.220313 -5.024097,-0.220314 -0.599417,0.273113 -0.599417,0.273113 -0.189657,-0.189657 -0.189657,-0.189657 0.367754,-0.227284 0.367753,-0.227284 -1.169166,-0.170215 -1.1691656,-0.170215 -2.6458332,-0.21255 -2.6458333,-0.212549 2.4473958,-0.03702 2.4473958,-0.03702 v -0.282413 -0.282413 l 0.5291666,0.167951 0.5291669,0.167951 v -0.31327 -0.313258 L 9.6509766,20.174296 8.9832035,20.301949 8.8416117,20.072849 8.70002,19.843749 H 7.6399076 6.579795 L 6.0606118,19.56589 5.541429,19.288032 5.6834398,19.058253 5.825451,18.828475 5.029392,18.653631 4.2333332,18.478787 l -0.8598958,0.169368 -0.8598958,0.169367 0.396875,-0.276585 0.396875,-0.276585 2.6458333,-0.02538 2.6458332,-0.02538 -1.6447989,-0.541759 -1.6447986,-0.541758 0.2718233,-0.507907 0.2718234,-0.507907 0.7115172,-0.281196 0.711517,-0.281195 4.0094575,-0.0256 4.009458,-0.0256 0.290021,-0.968006 L 15.875,13.564659 V 13.26278 12.9609 l -1.918229,0.170874 -1.91823,0.170874 0.153944,-0.16863 0.153943,-0.16863 0.90439,-0.103112 0.90439,-0.103113 0.961329,-0.02958 0.961328,-0.02958 0.148763,-0.56887 0.148763,-0.56887 -3.094466,0.17424 -3.094467,0.174239 -3.8364581,0.11348 -3.8364583,0.11348 2.2489583,-0.239966 2.2489583,-0.239965 4.5566538,-0.212309 4.556655,-0.212309 0.242253,-0.258763 0.242254,-0.258762 0.16664,-0.55366 L 16.942553,9.6083026 15.192233,8.8644067 13.441913,8.1205106 7.5808523,8.4421297 1.7197916,8.7637484 1.2567708,8.8976202 0.79374998,9.0314919 V 8.6625207 8.2935492 L 3.2411458,7.9846783 5.6885415,7.6758072 8.5328123,7.5031015 11.377083,7.3303958 11.373065,7.170927 11.369047,7.0114578 9.031567,6.0016346 6.6940868,4.9918116 5.1329808,5.1342554 3.5718749,5.2766991 1.8927099,5.4324998 0.21354497,5.5883004 0.38697071,5.3076918 0.56039648,5.027083 2.0661357,5.0074713 3.5718749,4.9878596 4.7624999,4.7852544 5.9531249,4.5826491 4.1729969,3.7465328 2.392869,2.9104165 H 1.9901845 1.5875 V 2.6360654 2.3617144 l 9.218167,0.075913 9.218167,0.075914 1.309927,0.8146287 1.309927,0.8146285 1.642739,-0.1188249 1.642739,-0.1188252 v 0.4286756 0.4286755 l -0.463021,0.029287 -0.463021,0.029287 -0.661458,-0.040089 -0.661458,-0.040089 0.661458,0.5340852 0.661458,0.534085 0.264584,0.037216 0.264583,0.037216 0.201878,-0.032479 0.201879,-0.032479 1.054891,0.6659244 1.054894,0.6659242 V 7.411652 7.6729161 h 0.396875 0.396875 v 0.2645833 0.2645833 l 0.330729,0.00355 0.330729,0.00355 0.661458,0.5326813 0.661459,0.5326811 2.331749,1.4481449 2.331751,1.448146 0.97554,-0.0313 0.975543,-0.0313 -0.79375,-0.169731 -0.79375,-0.169732 0.04948,-0.229276 0.04947,-0.229276 0.611984,-0.353061 0.611981,-0.353061 0.366692,-0.184777 0.366694,-0.184776 0.427056,0.267566 0.427058,0.267567 0.08455,0.568291 0.08455,0.568291 h -0.67986 -0.679861 v 0.538476 0.538475 l 0.426043,0.650222 0.42604,0.650222 -0.1665,0.663386 -0.166496,0.663386 h -0.254503 -0.254503 l -0.132053,-0.595313 -0.132057,-0.595312 -0.07142,-0.926042 -0.07142,-0.926042 h -2.513541 -2.513542 l -0.330729,0.230835 -0.330729,0.230834 v 0.400284 0.400284 l -0.661458,0.613019 -0.661459,0.613019 v 0.261245 0.261245 l 0.992188,0.103786 0.992187,0.103786 -1.124479,0.04448 -1.124479,0.04448 v 0.568786 0.568786 l 2.447396,-0.164868 2.447396,-0.164868 -0.442453,0.259176 -0.442449,0.259176 -1.996982,0.168807 -1.99698,0.168806 0.135141,0.218663 0.135139,0.218662 -0.4185,0.80929 -0.418499,0.809291 0.158718,0.256813 0.158718,0.256813 h 0.698834 0.698833 l 3.055866,-1.501928 3.055863,-1.501929 1.143773,-0.912846 1.143775,-0.912845 0.238739,-0.627934 0.238742,-0.627934 h 0.271131 0.271132 l 0.03135,0.46302 0.03135,0.463021 -0.04904,0.357281 -0.04904,0.35728 0.293913,-0.181649 0.293915,-0.181649 0.640514,0.419681 0.640514,0.419681 h 0.273894 0.273891 l -0.004,-0.595312 -0.004,-0.595313 -0.230439,-0.363802 -0.230442,-0.363802 h -0.648559 -0.648558 l -0.313621,-0.502187 -0.313621,-0.502188 0.27432,-0.512576 0.274323,-0.512576 -0.240414,-1.070005 -0.240414,-1.070005 -0.599977,-0.4858324 -0.599977,-0.4858321 0.253026,-0.1563796 0.253029,-0.1563796 0.824159,0.521821 0.824161,0.521821 0.516967,1.1137537 0.516969,1.113753 0.18955,1.040028 0.18955,1.040027 0.239567,-0.378569 0.239567,-0.37857 0.004,1.617421 0.004,1.617421 2.116666,1.347256 2.116667,1.347256 v 0.408761 0.40876 l -0.463021,0.0281 -0.463021,0.0281 -3.042708,-0.04779 -3.042708,-0.04779 -0.317752,0.74729 -0.317751,0.74729 -0.271335,0.728454 -0.271336,0.728453 0.966872,0.462171 0.96687,0.462172 0.107286,0.330729 0.107285,0.330729 h -3.064758 -3.064756 v 0.245685 0.245684 l -0.415774,0.415774 -0.415775,0.415774 h -0.598461 -0.598463 z m -1.000736,-1.33292 0.114655,-0.09997 -0.246947,-0.236153 -0.246943,-0.236152 -1.343567,-0.393125 -1.34357,-0.393125 -0.80096,0.896871 -0.80096,0.896872 2.276819,-0.167626 2.276821,-0.167625 z m 3.144896,-0.665737 -0.08455,-0.574588 -0.330729,-0.108919 -0.330729,-0.108919 v 0.507118 0.507118 l 0.17639,0.176389 0.176387,0.176389 h 0.238889 0.238887 z m -6.71766,-0.982933 0.144995,-0.234604 -0.400357,-0.332266 -0.400355,-0.332265 -0.158583,0.158583 -0.158586,0.158585 0.156676,0.408285 0.156673,0.408286 h 0.257273 0.257273 z m 10.024401,-0.625291 -0.131048,-0.595313 -0.141372,-0.396875 -0.141375,-0.396875 -0.220721,0.77108 -0.22072,0.771081 0.136649,0.221107 0.136652,0.221107 h 0.356492 0.356489 z m -1.074925,-0.962061 0.230973,-0.895914 -0.262109,-0.26211 -0.26211,-0.262109 -0.619948,0.155597 -0.61995,0.155597 -0.590048,0.549713 -0.590047,0.549713 v 0.232228 0.232227 l 0.727604,0.270639 0.727605,0.270638 0.513527,-0.05015 0.513529,-0.05015 z m -22.821572,0.234456 -0.396875,-0.25648 -1.007802,-0.0041 -1.007802,-0.0041 0.163521,0.264583 0.163522,0.264584 1.241155,-0.0041 1.241156,-0.0041 z m 7.14375,0 -0.396875,-0.25648 -2.38125,0.02232 -2.38125,0.02232 -0.661458,0.211834 -0.661458,0.211836 3.439583,0.02232 3.439583,0.02232 z m 17.4625,-0.264583 V 20.637499 H 39.183103 38.94329 l 0.138379,0.529166 0.13838,0.529167 h 0.101433 0.101434 z m -4.7625,0 V 20.902082 H 34.54374 34.427061 l -0.16352,0.264583 -0.163521,0.264583 h 0.280197 0.280199 z m -5.159375,-0.264583 0.16352,-0.264583 h -0.264583 -0.264583 l -0.163521,0.264583 -0.16352,0.264583 h 0.264583 0.264584 z m -12.876798,-0.556714 1.235132,-0.02755 -1.276179,-0.390187 -1.276178,-0.390188 -0.377467,0.144848 -0.377468,0.144848 v 0.433486 0.433487 l 0.418514,-0.1606 0.418515,-0.160599 z m 12.474547,-0.755662 0.534543,-1.047793 -0.01196,-0.34127 -0.01195,-0.341269 -0.637548,1.190625 -0.637548,1.190625 -0.01196,0.198437 -0.01195,0.198438 h 0.126915 0.126913 z m 10.588709,0.679225 v -0.103984 l -0.396875,-0.152295 -0.396875,-0.152296 v 0.25628 0.256279 h 0.396875 0.396875 z m -11.787187,-0.91261 -0.251354,-0.222844 -2.076644,-0.721172 -2.076643,-0.721172 -0.112006,0.112005 -0.112005,0.112006 2.188649,0.808751 2.188649,0.808751 0.251354,0.02326 0.251354,0.02326 z m 11.787187,0.09055 v -0.132292 h -0.132292 -0.132291 v 0.132292 0.132291 h 0.132291 0.132292 z m -0.529167,-0.248969 v -0.116677 l -0.305464,-0.188787 -0.305464,-0.188786 0.188788,0.305463 0.188786,0.305464 h 0.116678 0.116676 z M 8.6595919,18.625563 8.4997394,18.465711 l -0.3472656,0.138964 -0.3472656,0.138964 0.5071181,0.02089 0.5071179,0.02089 z m 1.7303391,-0.0137 -0.325693,-0.131773 -0.4680568,0.121969 -0.4680564,0.12197 0.79375,0.0098 0.7937502,0.0098 -0.325694,-0.131774 z m 13.687152,-2.339991 0.819171,-1.190625 h -0.367535 -0.367535 l -1.232676,0.370981 -1.232675,0.37098 V 15.62641 15.429612 l 1.521354,-0.426609 1.521354,-0.426608 0.79375,-0.169619 0.79375,-0.16962 -1.824643,-0.924033 -1.824643,-0.924032 -0.534157,0.238348 -0.534158,0.238348 -0.448076,1.636896 -0.448077,1.636897 1.351669,0.04894 1.351668,0.04894 -1.419673,0.09824 -1.419673,0.09824 0.493632,0.498553 0.493631,0.498553 0.847185,0.01572 0.847185,0.01572 z m -5.363369,-2.438619 -0.501646,-2.323881 0.01913,-0.595312 0.01913,-0.595313 h -0.26162 -0.261619 v 0.363802 0.363802 l -0.173593,0.867964 -0.173592,0.867963 0.287602,-0.177748 0.287602,-0.177748 0.166189,0.268899 0.166188,0.268899 H 17.7626 17.23772 l -0.404366,1.379425 -0.404366,1.379425 0.141536,0.141929 0.141536,0.14193 0.970532,0.286768 0.970533,0.286769 0.281118,-0.211847 0.281118,-0.211846 z m 2.156959,0.601665 0.295993,-1.175497 v -0.27971 -0.279712 H 20.933493 20.70032 l -0.295994,1.175496 -0.295993,1.175496 v 0.279712 0.279713 h 0.233173 0.233174 z M 19.579166,13.610426 V 12.964582 H 19.314583 19.05 v 0.809365 0.809365 l 0.264583,-0.163521 0.264583,-0.163522 z m 0.621596,-0.240495 0.149043,-0.388402 -0.253028,-0.15638 -0.253027,-0.15638 v 0.544782 0.544781 h 0.103984 0.103984 z m 0.172154,-1.045167 v -0.110652 l 0.160599,-0.418515 0.1606,-0.418514 H 20.268932 19.84375 v -0.264584 -0.264583 h -0.21876 -0.218759 l 0.116497,0.79375 0.116498,0.79375 h 0.366845 0.366845 z m 1.163868,-0.990976 -0.142099,-0.229921 -0.246301,0.152223 -0.246301,0.152222 0.0084,0.579698 0.0084,0.579697 0.379985,-0.501999 0.379985,-0.502 -0.142098,-0.22992 z m 16.563215,0.175586 v -0.132291 h -0.132292 -0.132291 v 0.132291 0.132292 h 0.132291 0.132292 z m -0.529167,-0.396875 v -0.264583 h -0.116675 -0.116679 l -0.163521,0.264583 -0.16352,0.264584 h 0.280196 0.280199 z m -15.429831,-1.7375904 0.338374,-1.3051175 0.0051,-0.3631261 0.0051,-0.3631257 -0.378656,0.3142561 -0.378655,0.3142562 -0.282803,1.3186634 -0.282803,1.318664 v 0.141317 0.141317 l 0.31798,-0.105993 0.317981,-0.105994 z M 11.972396,7.7461009 11.1125,7.6393889 10.252604,7.7461009 9.3927081,7.8528132 H 11.1125 12.832291 Z M 26.193749,6.2177079 V 6.0854162 h -0.132291 -0.132292 v 0.1322917 0.1322916 h 0.132292 0.132291 z M 1.1295147,21.247895 l 0.4680563,-0.12197 0.3256936,0.131773 0.3256937,0.131774 -0.79375,-0.0098 -0.79374998,-0.0098 0.46805638,-0.121969 z M 51.858332,19.711457 v -0.132292 h 0.132292 0.132291 v 0.132292 0.132292 H 51.990624 51.858332 Z M 1.3890625,17.269758 2.3812499,17.165972 3.3734374,17.269758 4.3656249,17.373544 H 2.3812499 0.39687499 Z M 32.543749,14.416289 v -0.362144 l 0.214059,-0.132294 0.214056,-0.132295 2.040808,-0.184933 2.040805,-0.184933 -0.167381,0.436188 -0.167381,0.436189 -0.566129,0.113421 -0.566128,0.113421 -1.521355,0.129762 -1.521354,0.129761 z M 0.79374998,13.754276 V 13.493749 H 2.5576388 4.3215276 l -0.1102429,0.09526 -0.1102431,0.09526 -1.6536458,0.165267 -1.65364582,0.165266 z M 7.1437498,10.639748 v -0.284687 l 2.5396076,-0.0843 2.5396076,-0.0843 0.121841,0.198437 0.12184,0.198438 -0.875511,0.0019 -0.87551,0.0019 -1.7859377,0.168671 -1.7859375,0.168671 z"
     id="path346" /></svg>
